<svg width="2084px" height="282px"
 viewBox="0.00 0.00 1388.84 188.00" xmlns="http://www.w3.org/2000/svg" xmlns:xlink="http://www.w3.org/1999/xlink">
<g id="graph0" class="graph" transform="scale(1.0 1.0) rotate(0) translate(4 184)">
<title>1. Build tree</title>
<polygon fill="white" stroke="none" points="-4,4 -4,-184 1384.84,-184 1384.84,4 -4,4"/>
<!-- 40 -->
<g id="node1" class="node"><title>40</title>
<ellipse fill="none" stroke="black" cx="720.397" cy="-162" rx="27" ry="18"/>
<text text-anchor="middle" x="720.397" y="-158.3" font-family="Times New Roman,serif" font-size="14.00">40</text>
</g>
<!-- 7 | 12 | 19 | 22 | 32 -->
<g id="node2" class="node"><title>7 | 12 | 19 | 22 | 32</title>
<ellipse fill="none" stroke="black" cx="432.397" cy="-90" rx="75.2868" ry="18"/>
<text text-anchor="middle" x="432.397" y="-86.3" font-family="Times New Roman,serif" font-size="14.00">7 | 12 | 19 | 22 | 32</text>
</g>
<!-- 40&#45;&gt;7 | 12 | 19 | 22 | 32 -->
<g id="edge1" class="edge"><title>40&#45;&gt;7 | 12 | 19 | 22 | 32</title>
<path fill="none" stroke="black" d="M695.342,-154.91C650.591,-144.033 555.744,-120.98 493.046,-105.741"/>
<polygon fill="black" stroke="black" points="493.816,-102.326 483.272,-103.366 492.163,-109.128 493.816,-102.326"/>
</g>
<!-- 51 | 57 | 69 | 76 -->
<g id="node3" class="node"><title>51 | 57 | 69 | 76</title>
<ellipse fill="none" stroke="black" cx="1067.4" cy="-90" rx="64.9885" ry="18"/>
<text text-anchor="middle" x="1067.4" y="-86.3" font-family="Times New Roman,serif" font-size="14.00">51 | 57 | 69 | 76</text>
</g>
<!-- 40&#45;&gt;51 | 57 | 69 | 76 -->
<g id="edge2" class="edge"><title>40&#45;&gt;51 | 57 | 69 | 76</title>
<path fill="none" stroke="black" d="M745.913,-155.853C800.436,-144.854 929.59,-118.8 1006.58,-103.269"/>
<polygon fill="black" stroke="black" points="1007.51,-106.651 1016.62,-101.243 1006.13,-99.7897 1007.51,-106.651"/>
</g>
<!-- 0 | 2 | 6 -->
<g id="node4" class="node"><title>0 | 2 | 6</title>
<ellipse fill="none" stroke="black" cx="36.3968" cy="-18" rx="36.2938" ry="18"/>
<text text-anchor="middle" x="36.3968" y="-14.3" font-family="Times New Roman,serif" font-size="14.00">0 | 2 | 6</text>
</g>
<!-- 7 | 12 | 19 | 22 | 32&#45;&gt;0 | 2 | 6 -->
<g id="edge3" class="edge"><title>7 | 12 | 19 | 22 | 32&#45;&gt;0 | 2 | 6</title>
<path fill="none" stroke="black" d="M362.923,-82.8821C291.475,-75.5764 177.396,-61.0795 81.3968,-36 78.5939,-35.2678 75.7245,-34.4219 72.8579,-33.5065"/>
<polygon fill="black" stroke="black" points="73.8186,-30.1357 63.2239,-30.1912 71.5407,-36.7548 73.8186,-30.1357"/>
</g>
<!-- 8 | 9 | 10 | 11 -->
<g id="node5" class="node"><title>8 | 9 | 10 | 11</title>
<ellipse fill="none" stroke="black" cx="146.397" cy="-18" rx="55.7903" ry="18"/>
<text text-anchor="middle" x="146.397" y="-14.3" font-family="Times New Roman,serif" font-size="14.00">8 | 9 | 10 | 11</text>
</g>
<!-- 7 | 12 | 19 | 22 | 32&#45;&gt;8 | 9 | 10 | 11 -->
<g id="edge4" class="edge"><title>7 | 12 | 19 | 22 | 32&#45;&gt;8 | 9 | 10 | 11</title>
<path fill="none" stroke="black" d="M380.526,-76.8762C335.693,-66.322 269.188,-50.4853 211.397,-36 207.08,-34.9179 202.605,-33.7807 198.117,-32.6289"/>
<polygon fill="black" stroke="black" points="198.881,-29.2114 188.323,-30.0997 197.13,-35.9891 198.881,-29.2114"/>
</g>
<!-- 13 | 14 | 16 | 17 | 18 -->
<g id="node6" class="node"><title>13 | 14 | 16 | 17 | 18</title>
<ellipse fill="none" stroke="black" cx="300.397" cy="-18" rx="79.8859" ry="18"/>
<text text-anchor="middle" x="300.397" y="-14.3" font-family="Times New Roman,serif" font-size="14.00">13 | 14 | 16 | 17 | 18</text>
</g>
<!-- 7 | 12 | 19 | 22 | 32&#45;&gt;13 | 14 | 16 | 17 | 18 -->
<g id="edge5" class="edge"><title>7 | 12 | 19 | 22 | 32&#45;&gt;13 | 14 | 16 | 17 | 18</title>
<path fill="none" stroke="black" d="M402.773,-73.2906C384.053,-63.3632 359.655,-50.4247 339.372,-39.6688"/>
<polygon fill="black" stroke="black" points="340.852,-36.4921 330.378,-34.8991 337.573,-42.6763 340.852,-36.4921"/>
</g>
<!-- 20 | 21 -->
<g id="node7" class="node"><title>20 | 21</title>
<ellipse fill="none" stroke="black" cx="432.397" cy="-18" rx="34.394" ry="18"/>
<text text-anchor="middle" x="432.397" y="-14.3" font-family="Times New Roman,serif" font-size="14.00">20 | 21</text>
</g>
<!-- 7 | 12 | 19 | 22 | 32&#45;&gt;20 | 21 -->
<g id="edge6" class="edge"><title>7 | 12 | 19 | 22 | 32&#45;&gt;20 | 21</title>
<path fill="none" stroke="black" d="M432.397,-71.6966C432.397,-63.9827 432.397,-54.7125 432.397,-46.1124"/>
<polygon fill="black" stroke="black" points="435.897,-46.1043 432.397,-36.1043 428.897,-46.1044 435.897,-46.1043"/>
</g>
<!-- 23 | 26 | 28 | 30 | 31 -->
<g id="node8" class="node"><title>23 | 26 | 28 | 30 | 31</title>
<ellipse fill="none" stroke="black" cx="564.397" cy="-18" rx="79.8859" ry="18"/>
<text text-anchor="middle" x="564.397" y="-14.3" font-family="Times New Roman,serif" font-size="14.00">23 | 26 | 28 | 30 | 31</text>
</g>
<!-- 7 | 12 | 19 | 22 | 32&#45;&gt;23 | 26 | 28 | 30 | 31 -->
<g id="edge7" class="edge"><title>7 | 12 | 19 | 22 | 32&#45;&gt;23 | 26 | 28 | 30 | 31</title>
<path fill="none" stroke="black" d="M462.02,-73.2906C480.74,-63.3632 505.139,-50.4247 525.421,-39.6688"/>
<polygon fill="black" stroke="black" points="527.221,-42.6763 534.416,-34.8991 523.941,-36.4921 527.221,-42.6763"/>
</g>
<!-- 34 | 36 | 37 | 39 -->
<g id="node9" class="node"><title>34 | 36 | 37 | 39</title>
<ellipse fill="none" stroke="black" cx="727.397" cy="-18" rx="64.9885" ry="18"/>
<text text-anchor="middle" x="727.397" y="-14.3" font-family="Times New Roman,serif" font-size="14.00">34 | 36 | 37 | 39</text>
</g>
<!-- 7 | 12 | 19 | 22 | 32&#45;&gt;34 | 36 | 37 | 39 -->
<g id="edge8" class="edge"><title>7 | 12 | 19 | 22 | 32&#45;&gt;34 | 36 | 37 | 39</title>
<path fill="none" stroke="black" d="M483.782,-76.8069C535.687,-64.4905 615.718,-45.5 669.754,-32.678"/>
<polygon fill="black" stroke="black" points="670.607,-36.0729 679.528,-30.3586 668.99,-29.262 670.607,-36.0729"/>
</g>
<!-- 41 | 42 | 47 | 49 -->
<g id="node10" class="node"><title>41 | 42 | 47 | 49</title>
<ellipse fill="none" stroke="black" cx="875.397" cy="-18" rx="64.9885" ry="18"/>
<text text-anchor="middle" x="875.397" y="-14.3" font-family="Times New Roman,serif" font-size="14.00">41 | 42 | 47 | 49</text>
</g>
<!-- 51 | 57 | 69 | 76&#45;&gt;41 | 42 | 47 | 49 -->
<g id="edge9" class="edge"><title>51 | 57 | 69 | 76&#45;&gt;41 | 42 | 47 | 49</title>
<path fill="none" stroke="black" d="M1029.46,-75.1703C998.828,-64.0009 955.554,-48.2239 922.665,-36.2332"/>
<polygon fill="black" stroke="black" points="923.845,-32.9381 913.251,-32.801 921.447,-39.5146 923.845,-32.9381"/>
</g>
<!-- 52 | 54 | 56 -->
<g id="node11" class="node"><title>52 | 54 | 56</title>
<ellipse fill="none" stroke="black" cx="1008.4" cy="-18" rx="50.0912" ry="18"/>
<text text-anchor="middle" x="1008.4" y="-14.3" font-family="Times New Roman,serif" font-size="14.00">52 | 54 | 56</text>
</g>
<!-- 51 | 57 | 69 | 76&#45;&gt;52 | 54 | 56 -->
<g id="edge10" class="edge"><title>51 | 57 | 69 | 76&#45;&gt;52 | 54 | 56</title>
<path fill="none" stroke="black" d="M1053.41,-72.411C1046.07,-63.6933 1036.92,-52.8454 1028.8,-43.2077"/>
<polygon fill="black" stroke="black" points="1031.4,-40.8606 1022.28,-35.4699 1026.05,-45.3719 1031.4,-40.8606"/>
</g>
<!-- 60 | 63 | 65 -->
<g id="node12" class="node"><title>60 | 63 | 65</title>
<ellipse fill="none" stroke="black" cx="1126.4" cy="-18" rx="50.0912" ry="18"/>
<text text-anchor="middle" x="1126.4" y="-14.3" font-family="Times New Roman,serif" font-size="14.00">60 | 63 | 65</text>
</g>
<!-- 51 | 57 | 69 | 76&#45;&gt;60 | 63 | 65 -->
<g id="edge11" class="edge"><title>51 | 57 | 69 | 76&#45;&gt;60 | 63 | 65</title>
<path fill="none" stroke="black" d="M1081.38,-72.411C1088.73,-63.6933 1097.87,-52.8454 1105.99,-43.2077"/>
<polygon fill="black" stroke="black" points="1108.75,-45.3719 1112.51,-35.4699 1103.39,-40.8606 1108.75,-45.3719"/>
</g>
<!-- 71 | 72 | 73 -->
<g id="node13" class="node"><title>71 | 72 | 73</title>
<ellipse fill="none" stroke="black" cx="1244.4" cy="-18" rx="50.0912" ry="18"/>
<text text-anchor="middle" x="1244.4" y="-14.3" font-family="Times New Roman,serif" font-size="14.00">71 | 72 | 73</text>
</g>
<!-- 51 | 57 | 69 | 76&#45;&gt;71 | 72 | 73 -->
<g id="edge12" class="edge"><title>51 | 57 | 69 | 76&#45;&gt;71 | 72 | 73</title>
<path fill="none" stroke="black" d="M1103.22,-74.8345C1131.93,-63.4792 1172.27,-47.5239 1202.48,-35.5756"/>
<polygon fill="black" stroke="black" points="1203.9,-38.7804 1211.91,-31.848 1201.32,-32.271 1203.9,-38.7804"/>
</g>
<!-- 77 | 78 -->
<g id="node14" class="node"><title>77 | 78</title>
<ellipse fill="none" stroke="black" cx="1346.4" cy="-18" rx="34.394" ry="18"/>
<text text-anchor="middle" x="1346.4" y="-14.3" font-family="Times New Roman,serif" font-size="14.00">77 | 78</text>
</g>
<!-- 51 | 57 | 69 | 76&#45;&gt;77 | 78 -->
<g id="edge13" class="edge"><title>51 | 57 | 69 | 76&#45;&gt;77 | 78</title>
<path fill="none" stroke="black" d="M1120.5,-79.5267C1168.74,-70.3446 1241.59,-55.0306 1303.4,-36 1305.81,-35.2559 1308.29,-34.4375 1310.77,-33.5744"/>
<polygon fill="black" stroke="black" points="1312.07,-36.8232 1320.25,-30.0862 1309.66,-30.2536 1312.07,-36.8232"/>
</g>
</g>
</svg>
